<?xml version="1.0" encoding="utf-8"?>
<!-- Generator: Adobe Illustrator 23.1.0, SVG Export Plug-In . SVG Version: 6.00 Build 0)  -->
<svg version="1.1" id="Layer_1" xmlns="http://www.w3.org/2000/svg" xmlns:xlink="http://www.w3.org/1999/xlink" x="0px" y="0px"
	 viewBox="0 0 1100 400" style="enable-background:new 0 0 1100 400;" xml:space="preserve">
<style type="text/css">
	.st0{stroke:#000000;stroke-miterlimit:10;}
	.st1{fill:#F15A24;stroke:#000000;stroke-miterlimit:10;}
	.st2{fill:#009245;stroke:#000000;stroke-miterlimit:10;}
	.st3{fill:#FBB03B;stroke:#000000;stroke-miterlimit:10;}
	.st4{fill:#FFFFFF;stroke:#000000;stroke-miterlimit:10;}
	.st5{fill:#FF0000;stroke:#000000;stroke-miterlimit:10;}
</style>
<rect x="43.17" y="23.74" class="st0" width="1000" height="350"/>
<rect x="69.36" y="71.95" class="st1" width="100" height="250"/>
<rect x="89.62" y="124.45" class="st2" width="55" height="55"/>
<rect x="89.62" y="231.16" class="st2" width="55" height="55"/>
<rect x="177.07" y="71.95" class="st3" width="848.63" height="290.67"/>
<rect x="202.46" y="177.93" class="st4" width="72" height="187.69"/>
<rect x="275.07" y="177.93" class="st4" width="72" height="187.69"/>
<rect x="346.46" y="177.93" class="st4" width="72" height="187.69"/>
<rect x="418.46" y="177.93" class="st4" width="72" height="187.69"/>
<rect x="489.25" y="177.93" class="st4" width="72" height="187.69"/>
<rect x="561.25" y="177.93" class="st4" width="72" height="187.69"/>
<rect x="633.25" y="177.93" class="st4" width="72" height="187.69"/>
<rect x="705.25" y="177.93" class="st4" width="72" height="187.69"/>
<rect x="777.25" y="177.93" class="st4" width="72" height="187.69"/>
<rect x="849.25" y="177.93" class="st4" width="72" height="187.69"/>
<rect x="921.25" y="177.93" class="st4" width="72" height="187.69"/>
<rect x="260.51" y="177.93" class="st0" width="29.12" height="126.61"/>
<rect x="403.6" y="177.93" class="st0" width="29.12" height="126.61"/>
<rect x="331.9" y="177.93" class="st0" width="29.12" height="126.61"/>
<rect x="546.69" y="177.93" class="st0" width="29.12" height="126.61"/>
<rect x="618.69" y="177.93" class="st0" width="29.12" height="126.61"/>
<rect x="762.69" y="177.93" class="st0" width="29.12" height="126.61"/>
<rect x="834.69" y="177.93" class="st0" width="29.12" height="126.61"/>
<rect x="906.69" y="177.93" class="st0" width="29.12" height="126.61"/>
<rect x="327.45" y="105.44" class="st5" width="38.02" height="38.02"/>
<rect x="399.15" y="105.44" class="st5" width="38.02" height="38.02"/>
<rect x="471.45" y="105.44" class="st5" width="38.02" height="38.02"/>
<rect x="542.24" y="105.44" class="st5" width="38.02" height="38.02"/>
<rect x="614.24" y="105.44" class="st5" width="38.02" height="38.02"/>
<rect x="686.24" y="105.44" class="st5" width="38.02" height="38.02"/>
<rect x="758.24" y="105.44" class="st5" width="38.02" height="38.02"/>
<rect x="830.24" y="105.44" class="st5" width="38.02" height="38.02"/>
</svg>
